<?xml version="1.0" encoding="utf-8"?>
<!-- Generator: Adobe Illustrator 26.3.1, SVG Export Plug-In . SVG Version: 6.00 Build 0)  -->
<svg version="1.1"
	 id="svg8" xmlns:svg="http://www.w3.org/2000/svg" xmlns:rdf="http://www.w3.org/1999/02/22-rdf-syntax-ns#" xmlns:inkscape="http://www.inkscape.org/namespaces/inkscape" xmlns:dc="http://purl.org/dc/elements/1.1/" xmlns:sodipodi="http://sodipodi.sourceforge.net/DTD/sodipodi-0.dtd" xmlns:cc="http://creativecommons.org/ns#"
	 xmlns="http://www.w3.org/2000/svg" xmlns:xlink="http://www.w3.org/1999/xlink" x="0px" y="0px" viewBox="0 0 8.5 8.5"
	 style="enable-background:new 0 0 8.5 8.5;" xml:space="preserve">
<style type="text/css">
	.st0{fill-rule:evenodd;clip-rule:evenodd;fill:#FFFFFF;}
	.st1{fill-rule:evenodd;clip-rule:evenodd;fill:#009BA8;}
</style>
<g>
	<path class="st0" d="M1.9,0.2h4.8c1,0,1.8,0.8,1.8,1.8v4.5c0,1-0.8,1.8-1.8,1.8H1.9c-1,0-1.8-0.8-1.8-1.8V2C0.1,1,0.9,0.2,1.9,0.2"
		/>
	<path class="st1" d="M2.9,3.2C2.9,3,3,2.9,3.2,2.9h2.3c0.4,0,0.4,0.3,0.3,0.4c0,0-0.1,0.1-0.1,0.1H3.1C3,3.4,2.9,3.3,2.9,3.2
		 M4,1.4h0.7c0.5,0,0.9,0.1,1.2,0.1C6,1.6,6,1.6,6.1,1.7l0.2,0.1C6.5,2,6.6,2.3,6.7,2.6l0,0.1c0,0,0,0.1,0,0.1c0,0.2,0,0.4,0,0.5
		c0,0.2,0,1,0,1.3C6.6,4.5,6.7,4.5,6.4,4.4C6.2,4.3,6.2,4.4,6,4.3c-0.1,0-0.3,0-0.4,0.1C5.4,4.4,5.2,4.5,5,4.7
		C4.9,4.7,4.8,4.8,4.8,4.9c0,0-0.1,0.1-0.1,0.1C4.6,5.2,4.5,5.3,4.5,5.4C4.4,5.8,4.4,6.2,4.6,6.5C4.7,6.9,4.8,6.9,4.9,7
		C4.7,7,4.5,7,4.3,7C3.9,7,3.1,7,2.8,6.9c-0.1,0-0.1,0-0.1,0C2.5,6.7,2.3,6.6,2.2,6.5C2,6.3,2,6.1,1.9,5.8l0-0.3c0-0.2,0-0.4,0-0.6
		c0-0.2,0-0.4,0-0.6c0-0.5,0-0.9,0.1-1.3c0-0.1,0-0.1,0-0.1c0-0.1,0-0.2,0.1-0.4c0.1-0.3,0.3-0.5,0.6-0.7c0,0,0.1,0,0.1-0.1
		c0,0,0.1,0,0.1,0C3,1.5,3.2,1.5,3.4,1.5C3.5,1.5,3.7,1.5,4,1.4z M4.8,5.9c0,0.3,0.1,0.5,0.2,0.7c0.1,0.2,0.3,0.3,0.5,0.4
		c0.4,0.2,1,0.1,1.3-0.2c0.1-0.1,0.1-0.1,0.2-0.2c0.3-0.4,0.3-0.9,0-1.3C6.8,5.1,6.6,4.9,6.4,4.8c-0.1,0-0.1-0.1-0.2-0.1
		c-0.1,0-0.2,0-0.3,0c-0.1,0-0.2,0-0.3,0c-0.1,0-0.2,0-0.2,0.1C5.1,5,4.8,5.4,4.8,5.9z M5.8,5.9V5.1C5.8,5,6,5,6,5.1
		c0.1,0.1,0,0.6,0,0.7c0.3,0,0.5,0,0.5,0.2C6.5,6,6.5,6,6.4,6H5.9C5.8,6,5.8,6,5.8,5.9z M4.5,4.5H3.1C3,4.5,2.9,4.4,2.9,4.3
		c0-0.1,0-0.2,0.1-0.2C3,4,3.1,4,3.2,4h1.3C4.9,4,4.8,4.5,4.5,4.5z"/>
</g>
</svg>
