<?xml version="1.0" encoding="utf-8"?>
<!-- Generator: Adobe Illustrator 26.3.1, SVG Export Plug-In . SVG Version: 6.00 Build 0)  -->
<svg version="1.1"
	 id="svg8" xmlns:svg="http://www.w3.org/2000/svg" xmlns:rdf="http://www.w3.org/1999/02/22-rdf-syntax-ns#" xmlns:inkscape="http://www.inkscape.org/namespaces/inkscape" xmlns:dc="http://purl.org/dc/elements/1.1/" xmlns:sodipodi="http://sodipodi.sourceforge.net/DTD/sodipodi-0.dtd" xmlns:cc="http://creativecommons.org/ns#"
	 xmlns="http://www.w3.org/2000/svg" xmlns:xlink="http://www.w3.org/1999/xlink" x="0px" y="0px" viewBox="0 0 8.5 8.5"
	 style="enable-background:new 0 0 8.5 8.5;" xml:space="preserve">
<style type="text/css">
	.st0{fill:#91D4D9;}
</style>
<path class="st0" d="M8.1,6.7C7.9,6.7,7.8,6.5,7.9,6.4c0-0.1,0-0.2,0-0.3c0-0.6-0.4-1.2-1-1.4c0,0-0.1,0-0.1,0c0-0.1,0-0.2,0-0.2
	c0-0.2-0.1-0.3-0.3-0.3c-0.2,0-0.3,0.1-0.3,0.3c0,0,0,0.1,0,0.1c0,0.1,0,0.1-0.1,0.1c-0.5,0.1-0.8,0.5-1,0.9C5,5.9,5,6.1,5,6.3
	c0,0.2-0.1,0.4-0.3,0.4C4.6,6.8,4.6,6.9,4.6,7c0,0.1,0,0.1,0,0.2C4.6,7.6,5,8,5.5,8c0.2,0,0.4,0,0.6,0c0,0.2,0.1,0.3,0.3,0.3h0.1
	C6.7,8.3,6.7,8.2,6.8,8C7,8,7.2,8,7.4,8c0.5,0,0.8-0.4,0.9-0.8c0,0,0,0,0-0.1V7C8.3,6.9,8.2,6.8,8.1,6.7 M2.1,6.5
	c0.2,0,0.3-0.1,0.3-0.3c0-0.2-0.1-0.3-0.3-0.3C1.9,5.9,1.8,6,1.8,6.2C1.8,6.4,1.9,6.5,2.1,6.5z M2.1,4.5c0.2,0,0.3-0.1,0.3-0.3
	c0-0.2-0.1-0.3-0.3-0.3C1.9,3.9,1.8,4,1.8,4.2C1.8,4.4,1.9,4.5,2.1,4.5z M2.4,2.3C2.4,2.1,2.3,2,2.1,2C1.9,2,1.8,2.1,1.8,2.3
	c0,0.2,0.1,0.3,0.3,0.3C2.3,2.6,2.4,2.5,2.4,2.3z M4.1,5.9c-0.2,0-0.5,0-0.7,0C3.2,5.9,3,6,3,6.2c0,0.2,0.1,0.3,0.3,0.3
	c0.1,0,0.2,0,0.4,0c0.1,0,0.2,0,0.4,0c0.2,0,0.3-0.1,0.3-0.3C4.4,6,4.3,5.9,4.1,5.9z M5.4,4.3c0.1-0.2-0.1-0.4-0.3-0.4
	c-0.3,0-0.6,0-0.8,0c-0.3,0-0.5,0-0.8,0C3.2,3.9,3,4,3,4.2c0,0.2,0.1,0.3,0.4,0.3c0.2,0,0.3,0,0.5,0c0.4,0,0.8,0,1.2,0
	C5.2,4.5,5.3,4.4,5.4,4.3z M3.4,2.6c0.9,0,1.8,0,2.7,0c0.1,0,0.2,0,0.4,0c0.1,0,0.3-0.1,0.3-0.2C6.8,2.2,6.6,2,6.4,2
	c-0.5,0-1,0-1.5,0c-0.5,0-1,0-1.5,0C3.1,2,3,2.2,3.1,2.4C3.1,2.6,3.2,2.6,3.4,2.6z M7.4,7.4c-0.6,0-1.3,0-1.9,0c0,0-0.1,0-0.1,0
	c-0.1-0.1-0.1-0.1,0-0.2c0.2-0.2,0.3-0.4,0.3-0.7c0-0.2,0-0.3,0-0.5c0.1-0.4,0.4-0.7,0.8-0.6c0.4,0,0.7,0.4,0.7,0.8
	c0,0.2,0,0.3,0,0.5c0,0.3,0.1,0.5,0.3,0.6c0,0,0,0,0.1,0c0,0,0,0,0,0C7.6,7.3,7.5,7.4,7.4,7.4z M8.3,1.1c-0.1-0.5-0.5-0.9-1-0.9
	c0,0,0,0,0,0H1.3c-0.1,0-0.1,0-0.2,0c-0.5,0.2-0.8,0.5-0.9,1c0,0,0,0,0,0v5.9c0,0.1,0,0.1,0,0.2c0.2,0.5,0.5,0.8,1,0.9c0,0,0,0,0,0
	h2.6c0,0,0,0,0,0c0.2-0.1,0.3-0.2,0.2-0.4c0-0.1-0.2-0.2-0.3-0.2c-0.8,0-1.6,0-2.3,0C1.1,7.7,0.8,7.4,0.8,7c0-1.8,0-3.7,0-5.5
	c0-0.4,0.3-0.7,0.7-0.7c1.8,0,3.7,0,5.5,0c0.4,0,0.7,0.3,0.7,0.7c0,0.9,0,1.8,0,2.7c0,0,0,0.1,0,0.1c0,0.2,0.2,0.3,0.4,0.3
	c0.1,0,0.2-0.1,0.2-0.2V1.3C8.3,1.3,8.3,1.2,8.3,1.1z"/>
</svg>
