<?xml version="1.0" encoding="utf-8"?>
<!-- Generator: Adobe Illustrator 26.3.1, SVG Export Plug-In . SVG Version: 6.00 Build 0)  -->
<svg version="1.1"
	 id="svg8" xmlns:svg="http://www.w3.org/2000/svg" xmlns:rdf="http://www.w3.org/1999/02/22-rdf-syntax-ns#" xmlns:inkscape="http://www.inkscape.org/namespaces/inkscape" xmlns:dc="http://purl.org/dc/elements/1.1/" xmlns:sodipodi="http://sodipodi.sourceforge.net/DTD/sodipodi-0.dtd" xmlns:cc="http://creativecommons.org/ns#"
	 xmlns="http://www.w3.org/2000/svg" xmlns:xlink="http://www.w3.org/1999/xlink" x="0px" y="0px" viewBox="0 0 8.5 8.5"
	 style="enable-background:new 0 0 8.5 8.5;" xml:space="preserve">
<style type="text/css">
	.st0{fill:#91D4D9;}
</style>
<path class="st0" d="M4.4,5.1l0.3-0.4C4.6,4.7,4.4,4.8,4.3,4.8c-0.2,0-0.4,0-0.5-0.1l0.3,0.4h0L3.2,7.2l1.1,1.1l1.1-1.1L4.4,5.1
	L4.4,5.1z M0.5,7.4c0-1.1,1.2-2.5,2.9-2.9C2.6,4,2.2,3.1,2.2,2.3c0-1.1,0.9-2.1,2.1-2.1c1.2,0,2.1,0.9,2.1,2.1
	c0,0.8-0.5,1.7-1.2,2.2C6.8,4.9,8,6.3,8,7.4C8,8.6,0.5,8.6,0.5,7.4z"/>
</svg>
