<?xml version="1.0" encoding="utf-8"?>
<!-- Generator: Adobe Illustrator 26.3.1, SVG Export Plug-In . SVG Version: 6.00 Build 0)  -->
<svg version="1.1"
	 id="svg8" xmlns:svg="http://www.w3.org/2000/svg" xmlns:rdf="http://www.w3.org/1999/02/22-rdf-syntax-ns#" xmlns:inkscape="http://www.inkscape.org/namespaces/inkscape" xmlns:dc="http://purl.org/dc/elements/1.1/" xmlns:sodipodi="http://sodipodi.sourceforge.net/DTD/sodipodi-0.dtd" xmlns:cc="http://creativecommons.org/ns#"
	 xmlns="http://www.w3.org/2000/svg" xmlns:xlink="http://www.w3.org/1999/xlink" x="0px" y="0px" viewBox="0 0 8.5 8.5"
	 style="enable-background:new 0 0 8.5 8.5;" xml:space="preserve">
<style type="text/css">
	.st0{fill-rule:evenodd;clip-rule:evenodd;fill:#009BA8;}
	.st1{fill:none;stroke:#009BA8;stroke-width:0.8504;stroke-miterlimit:2.6131;}
</style>
<g>
	<path class="st0" d="M2.4,2H4c0.2,0,0.4,0.2,0.4,0.4c0,0.2-0.2,0.4-0.4,0.4H2.4C2.2,2.8,2,2.6,2,2.4C2,2.2,2.2,2,2.4,2 M2.4,3.9
		h3.7c0.2,0,0.4,0.2,0.4,0.4c0,0.2-0.2,0.4-0.4,0.4H2.4C2.2,4.6,2,4.5,2,4.2C2,4,2.2,3.9,2.4,3.9z M2.4,5.7h3.7
		c0.2,0,0.4,0.2,0.4,0.4c0,0.2-0.2,0.4-0.4,0.4H2.4C2.2,6.5,2,6.3,2,6.1C2,5.9,2.2,5.7,2.4,5.7z"/>
	<path class="st1" d="M2.5,0.6H6c1,0,1.7,0.8,1.7,1.7v3.7c0,1-0.8,1.7-1.7,1.7H2.5c-1,0-1.7-0.8-1.7-1.7V2.4
		C0.8,1.4,1.6,0.6,2.5,0.6z"/>
</g>
</svg>
