<?xml version="1.0" encoding="utf-8"?>
<!-- Generator: Adobe Illustrator 26.3.1, SVG Export Plug-In . SVG Version: 6.00 Build 0)  -->
<svg version="1.1"
	 id="svg8" xmlns:svg="http://www.w3.org/2000/svg" xmlns:rdf="http://www.w3.org/1999/02/22-rdf-syntax-ns#" xmlns:inkscape="http://www.inkscape.org/namespaces/inkscape" xmlns:dc="http://purl.org/dc/elements/1.1/" xmlns:sodipodi="http://sodipodi.sourceforge.net/DTD/sodipodi-0.dtd" xmlns:cc="http://creativecommons.org/ns#"
	 xmlns="http://www.w3.org/2000/svg" xmlns:xlink="http://www.w3.org/1999/xlink" x="0px" y="0px" viewBox="0 0 8.5 8.5"
	 style="enable-background:new 0 0 8.5 8.5;" xml:space="preserve">
<style type="text/css">
	.st0{fill-rule:evenodd;clip-rule:evenodd;fill:#FFFFFF;}
	.st1{fill-rule:evenodd;clip-rule:evenodd;fill:#009BA8;}
</style>
<g>
	<path class="st0" d="M1.8,0.2h4.8c1,0,1.8,0.8,1.8,1.8v4.6c0,1-0.8,1.8-1.8,1.8H1.8C0.8,8.3,0,7.5,0,6.5V2C0,1,0.8,0.2,1.8,0.2"/>
	<path class="st1" d="M1.8,2.9c0,0.2,0,0.2,0.2,0.3c0.1,0.1,0.1,0.1,0.2,0.2c0.1,0.1,0.3,0.3,0.4,0.4C2.8,4,2.9,4.1,3,4.3
		c0.1,0.1,0.3,0.3,0.3,0.3c0.1,0.1,0.3,0.1,0.4-0.1c0.1-0.1,0.1-0.2,0-0.3c0-0.1-0.1-0.1-0.2-0.2C3.5,4,2.9,3.4,2.8,3.3L2.7,3.2
		c0,0,0,0,0,0h2.8c0.1,0,0.1,0,0.2,0c0.1,0,0.2-0.1,0.2-0.2v0c0-0.1-0.1-0.2-0.2-0.2c-0.1,0-0.3,0-0.4,0c-0.8,0-1.8,0-2.6,0
		c0,0,0.1,0,0.2-0.1l0.7-0.7c0.1-0.1,0.1-0.1,0.2-0.2c0.1-0.2-0.2-0.5-0.4-0.3C3.3,1.3,2.2,2.5,2,2.7C1.9,2.7,1.8,2.8,1.8,2.9"/>
	<path class="st1" d="M6.7,5.5c0,0.2,0,0.2-0.2,0.3C6.4,5.9,6.4,6,6.3,6C6.2,6.2,6,6.3,5.9,6.5C5.7,6.6,5.6,6.7,5.5,6.9
		C5.4,6.9,5.2,7.1,5.1,7.2C5,7.3,4.8,7.2,4.7,7.1C4.7,7.1,4.7,7,4.7,6.9c0-0.1,0.1-0.1,0.2-0.2C5,6.5,5.6,6,5.7,5.9l0.1-0.1
		c0,0,0,0,0,0H3c-0.1,0-0.1,0-0.2,0c-0.1,0-0.2-0.1-0.2-0.2v0c0-0.1,0.1-0.2,0.2-0.2c0.1,0,0.3,0,0.4,0c0.8,0,1.8,0,2.6,0
		c0,0-0.1,0-0.2-0.1L4.9,4.4C4.8,4.4,4.7,4.3,4.7,4.2C4.6,4,4.9,3.7,5.1,3.9c0.1,0,1.2,1.2,1.4,1.4C6.6,5.3,6.7,5.4,6.7,5.5"/>
</g>
</svg>
