<?xml version="1.0" encoding="utf-8"?>
<!-- Generator: Adobe Illustrator 26.3.1, SVG Export Plug-In . SVG Version: 6.00 Build 0)  -->
<svg version="1.1"
	 id="svg8" xmlns:svg="http://www.w3.org/2000/svg" xmlns:rdf="http://www.w3.org/1999/02/22-rdf-syntax-ns#" xmlns:inkscape="http://www.inkscape.org/namespaces/inkscape" xmlns:dc="http://purl.org/dc/elements/1.1/" xmlns:sodipodi="http://sodipodi.sourceforge.net/DTD/sodipodi-0.dtd" xmlns:cc="http://creativecommons.org/ns#"
	 xmlns="http://www.w3.org/2000/svg" xmlns:xlink="http://www.w3.org/1999/xlink" x="0px" y="0px" viewBox="0 0 8.5 8.5"
	 style="enable-background:new 0 0 8.5 8.5;" xml:space="preserve">
<style type="text/css">
	.st0{fill-rule:evenodd;clip-rule:evenodd;fill:#009BA8;}
</style>
<path class="st0" d="M6.7,3.3c0,0.3,0,0.4,0,0.7c0,0.3-0.1,0.5-0.2,0.8C6.2,5.3,6.1,5.1,6.7,5.7C6.9,5.9,7,6.1,7.2,6.2
	C7.4,6.4,7.9,6.9,8,7.1C8.4,7.7,7.7,8.4,7.1,8C6.9,7.9,6.4,7.4,6.2,7.2L5.3,6.3C5.1,6.1,5.2,6.2,4.5,6.5C3.8,6.8,2.8,6.7,2.1,6.4
	C1.8,6.2,1.6,6.1,1.4,5.8c0,0-0.1,0-0.1-0.1c0,0,0-0.1-0.1-0.1C1,5.4,0.8,5.1,0.7,4.8C0.2,4,0.3,2.8,0.8,1.9c0.2-0.4,0.5-0.7,0.9-1
	C1.9,0.8,2,0.8,2.2,0.7c0.8-0.4,1.9-0.4,2.6,0c0.2,0.1,0.2,0.1,0.5,0.3C5.4,1,5.4,1,5.5,1.1c0,0,0.1,0,0.1,0.1c0,0,0.1,0.1,0.1,0.1
	C5.8,1.3,6,1.6,6.1,1.7C6.4,2,6.7,2.8,6.7,3.3 M2.7,2.4c-0.4,0-0.5-0.4-0.2-0.6c0.2-0.2,0.7-0.2,1-0.2c0.3,0,0.6,0.1,0.7,0.2L4.5,2
	c0,0,0.1,0.1,0.1,0.1c0.3,0.2,1,1,0.5,1.2C5,3.3,4.9,3.4,4.8,3.3C4.6,3.2,4.7,2.9,4.2,2.5C4,2.4,3.8,2.3,3.5,2.3
	C3,2.3,2.9,2.4,2.7,2.4z M3.6,1.2c-0.5,0-0.7,0-1.1,0.2c0,0-0.1,0-0.1,0C2.3,1.5,2.1,1.7,2,1.7C1.9,1.9,1.9,1.8,1.8,2
	c0,0,0,0-0.1,0.1C1.6,2.2,1.3,2.7,1.3,2.9c-0.1,0.6-0.1,1,0.1,1.6c0,0.1,0,0.1,0.1,0.1c0,0.1,0,0.1,0.1,0.1l0.3,0.4
	C1.9,5.2,2,5.3,2.1,5.3c0.1,0.1,0.2,0.1,0.2,0.2c0.1,0.1,0.2,0.1,0.3,0.1c0.5,0.2,1,0.2,1.5,0.1c0.5-0.1,0.8-0.3,1.1-0.6l0.3-0.3
	c0.2-0.3,0.4-0.8,0.4-1.1c0-0.1,0-0.1,0-0.2c0-0.6-0.3-1.2-0.7-1.6c0,0-0.1-0.1-0.1-0.1C4.9,1.6,4.7,1.5,4.5,1.4
	C4.3,1.3,4,1.2,3.6,1.2z"/>
</svg>
