<?xml version="1.0" encoding="utf-8"?>
<!-- Generator: Adobe Illustrator 26.3.1, SVG Export Plug-In . SVG Version: 6.00 Build 0)  -->
<svg version="1.1"
	 id="svg8" xmlns:svg="http://www.w3.org/2000/svg" xmlns:rdf="http://www.w3.org/1999/02/22-rdf-syntax-ns#" xmlns:inkscape="http://www.inkscape.org/namespaces/inkscape" xmlns:dc="http://purl.org/dc/elements/1.1/" xmlns:sodipodi="http://sodipodi.sourceforge.net/DTD/sodipodi-0.dtd" xmlns:cc="http://creativecommons.org/ns#"
	 xmlns="http://www.w3.org/2000/svg" xmlns:xlink="http://www.w3.org/1999/xlink" x="0px" y="0px" viewBox="0 0 8.5 8.5"
	 style="enable-background:new 0 0 8.5 8.5;" xml:space="preserve">
<style type="text/css">
	.st0{fill-rule:evenodd;clip-rule:evenodd;fill:#FFFFFF;}
	.st1{fill-rule:evenodd;clip-rule:evenodd;fill:#009BA8;}
</style>
<g>
	<path class="st0" d="M1.8,0.2h4.8c1,0,1.8,0.8,1.8,1.8v4.6c0,1-0.8,1.8-1.8,1.8H1.8C0.8,8.3,0,7.5,0,6.5V2C0,1,0.8,0.2,1.8,0.2"/>
	<path class="st1" d="M5.8,3H5.6H5.1C4.9,3,4.8,2.9,4.8,2.7V2.2V1.9L5.8,3z M4.5,4.9H4C3.9,4.9,3.9,5,3.9,5c0,0.1,0.1,0.1,0.1,0.1
		h0.5c0.1,0,0.1-0.1,0.1-0.1C4.6,5,4.6,4.9,4.5,4.9z M4.7,5.5H4c-0.1,0-0.1,0.1-0.1,0.1c0,0.1,0.1,0.1,0.1,0.1h0.7
		c0.1,0,0.1-0.1,0.1-0.1C4.9,5.5,4.8,5.5,4.7,5.5z M4.7,4.4H4c-0.1,0-0.1,0.1-0.1,0.1c0,0.1,0.1,0.1,0.1,0.1h0.8
		c0.1,0,0.1-0.1,0.1-0.1C4.9,4.4,4.8,4.4,4.7,4.4z M3.4,5.1c0,0.4,0.1,0.6,0.3,0.9c0,0,0,0,0.1,0.1C4,6.2,4.3,6.3,4.6,6.3
		c0.3,0,0.5,0,0.8-0.2c0.1,0,0.7,0.7,0.8,0.8c0.1,0.1,0.2,0.2,0.3,0.2c0.1,0,0.2-0.1,0.2-0.2c0-0.1-0.1-0.2-0.2-0.3
		C6.4,6.5,5.7,5.8,5.7,5.8c0,0,0.1-0.1,0.1-0.2c0,0,0-0.1,0.1-0.2C6,5.1,5.9,4.6,5.6,4.3C5.6,4.2,5.5,4.1,5.4,4.1C5.3,4,5.3,4,5.2,4
		C4.8,3.7,4.3,3.8,3.9,4.1C3.8,4.2,3.7,4.2,3.6,4.4C3.5,4.6,3.4,4.8,3.4,5.1z M6.4,3.1c0-0.1-0.1-0.2-0.2-0.3L5,1.6
		C4.9,1.5,4.8,1.4,4.6,1.4l0,0H2.8C2.4,1.4,2.1,1.7,2.1,2v2l0,2.5c0,0.3,0.3,0.6,0.6,0.6h3c0.1,0,0.1,0,0.2,0
		C5.7,6.9,5.5,6.7,5.3,6.5C5.1,6.6,4.9,6.6,4.6,6.6c-0.3,0-0.7-0.2-1-0.4c0,0-0.1-0.1-0.1-0.1C3.3,5.8,3.1,5.5,3.1,5.1
		c0-0.3,0.1-0.6,0.3-0.9C3.5,4,3.6,3.9,3.7,3.8c0.5-0.3,1.1-0.4,1.6-0.1c0.1,0,0.2,0.1,0.2,0.1C5.7,3.9,5.8,4,5.9,4.1
		c0.3,0.4,0.4,1,0.3,1.5c0,0.1,0,0.1-0.1,0.2C6.2,5.8,6.3,5.9,6.4,6L6.4,3.1L6.4,3.1z"/>
</g>
</svg>
