<?xml version="1.0" encoding="utf-8"?>
<!-- Generator: Adobe Illustrator 26.3.1, SVG Export Plug-In . SVG Version: 6.00 Build 0)  -->
<svg version="1.1"
	 id="svg8" xmlns:svg="http://www.w3.org/2000/svg" xmlns:rdf="http://www.w3.org/1999/02/22-rdf-syntax-ns#" xmlns:inkscape="http://www.inkscape.org/namespaces/inkscape" xmlns:dc="http://purl.org/dc/elements/1.1/" xmlns:sodipodi="http://sodipodi.sourceforge.net/DTD/sodipodi-0.dtd" xmlns:cc="http://creativecommons.org/ns#"
	 xmlns="http://www.w3.org/2000/svg" xmlns:xlink="http://www.w3.org/1999/xlink" x="0px" y="0px" viewBox="0 0 8.5 8.5"
	 style="enable-background:new 0 0 8.5 8.5;" xml:space="preserve">
<style type="text/css">
	.st0{fill-rule:evenodd;clip-rule:evenodd;fill:#91D4D9;}
</style>
<path class="st0" d="M7.9,6.4H6.6V5.1h1.3V6.4z M4.9,6.4H3.6V5.1h1.3V6.4z M1.9,6.4H0.6V5.1h1.3V6.4z M3,2.1h2.4v1.1H3V2.1z M8,4.8
	H7.4V4.2C7.4,4.1,7.3,4,7.3,4H4.4V3.6h1.2c0.1,0,0.2-0.1,0.2-0.2V2c0-0.1-0.1-0.2-0.2-0.2H2.9C2.8,1.8,2.7,1.9,2.7,2v1.5
	c0,0.1,0.1,0.2,0.2,0.2h1.2V4H1.2C1.2,4,1.1,4.1,1.1,4.2v0.6H0.5c-0.1,0-0.2,0.1-0.2,0.2v1.6c0,0.1,0.1,0.2,0.2,0.2H2
	c0.1,0,0.2-0.1,0.2-0.2V4.9c0-0.1-0.1-0.2-0.2-0.2H1.4V4.3h2.7v0.5H3.5c-0.1,0-0.2,0.1-0.2,0.2v1.6c0,0.1,0.1,0.2,0.2,0.2H5
	c0.1,0,0.2-0.1,0.2-0.2V4.9c0-0.1-0.1-0.2-0.2-0.2H4.4V4.3h2.7v0.5H6.5c-0.1,0-0.2,0.1-0.2,0.2v1.6c0,0.1,0.1,0.2,0.2,0.2H8
	c0.1,0,0.2-0.1,0.2-0.2V4.9C8.2,4.9,8.1,4.8,8,4.8z"/>
</svg>
