<?xml version="1.0" encoding="utf-8"?>
<!-- Generator: Adobe Illustrator 26.3.1, SVG Export Plug-In . SVG Version: 6.00 Build 0)  -->
<svg version="1.1"
	 id="svg8" xmlns:svg="http://www.w3.org/2000/svg" xmlns:rdf="http://www.w3.org/1999/02/22-rdf-syntax-ns#" xmlns:inkscape="http://www.inkscape.org/namespaces/inkscape" xmlns:dc="http://purl.org/dc/elements/1.1/" xmlns:sodipodi="http://sodipodi.sourceforge.net/DTD/sodipodi-0.dtd" xmlns:cc="http://creativecommons.org/ns#"
	 xmlns="http://www.w3.org/2000/svg" xmlns:xlink="http://www.w3.org/1999/xlink" x="0px" y="0px" viewBox="0 0 8.5 8.5"
	 style="enable-background:new 0 0 8.5 8.5;" xml:space="preserve">
<style type="text/css">
	.st0{fill-rule:evenodd;clip-rule:evenodd;fill:#009BA8;}
</style>
<path class="st0" d="M3.6,7.3h1.3C4.9,7.6,4.5,8,4,7.8c-0.1,0-0.1-0.1-0.2-0.1C3.7,7.6,3.6,7.5,3.6,7.3 M3.9,1.1
	c0-0.4,0.4-0.5,0.6-0.3c0.1,0.1,0.1,0.2,0.1,0.3c-0.1,0-0.1,0-0.2,0H4.1C4,1,4,1.1,3.9,1.1z M3.3,1.2c-0.2,0-0.8,0.4-0.9,0.6
	C2.2,2,2.2,1.9,2.1,2.2C2,2.3,2,2.3,1.9,2.4C1.8,2.7,1.7,3,1.6,3.3c-0.1,0.3,0,1.5,0,1.9c0,0.2,0,0.2-0.1,0.3C1.1,5.4,0.8,5.6,0.6,6
	C0.4,6.4,0.6,7,1,7.2c0.1,0,0.2,0.1,0.4,0.1h1.7c0,0.5,0.6,1.1,1.1,1.1c0.4,0,0.6-0.1,0.9-0.3c0.1-0.1,0.2-0.2,0.2-0.3
	c0.1-0.1,0.1-0.3,0.1-0.4h1.7c0.4,0,0.9-0.5,0.9-1C8,6,7.9,5.9,7.7,5.7C7.5,5.5,7.3,5.4,7,5.4C6.9,5.3,6.9,5.4,6.9,5.1
	c0-0.4,0-1.5,0-1.9C6.8,2.8,6.6,2.3,6.3,2L6,1.7C5.8,1.5,5.7,1.5,5.4,1.3c0,0-0.1,0-0.1-0.1c-0.1,0-0.1,0-0.1-0.1c0-0.1,0-0.1,0-0.2
	c0-0.5-0.4-0.9-0.9-0.9C4,0.1,3.7,0.2,3.5,0.4C3.3,0.7,3.3,1,3.3,1.2z"/>
</svg>
