<?xml version="1.0" encoding="utf-8"?>
<!-- Generator: Adobe Illustrator 26.3.1, SVG Export Plug-In . SVG Version: 6.00 Build 0)  -->
<svg version="1.1"
	 id="svg8" xmlns:svg="http://www.w3.org/2000/svg" xmlns:rdf="http://www.w3.org/1999/02/22-rdf-syntax-ns#" xmlns:inkscape="http://www.inkscape.org/namespaces/inkscape" xmlns:dc="http://purl.org/dc/elements/1.1/" xmlns:sodipodi="http://sodipodi.sourceforge.net/DTD/sodipodi-0.dtd" xmlns:cc="http://creativecommons.org/ns#"
	 xmlns="http://www.w3.org/2000/svg" xmlns:xlink="http://www.w3.org/1999/xlink" x="0px" y="0px" viewBox="0 0 8.5 8.5"
	 style="enable-background:new 0 0 8.5 8.5;" xml:space="preserve">
<style type="text/css">
	.st0{fill-rule:evenodd;clip-rule:evenodd;fill:#009BA8;}
	.st1{fill-rule:evenodd;clip-rule:evenodd;fill:#FFFFFF;}
</style>
<g>
	<path class="st0" d="M4.3,0.1c2.3,0,4.1,1.8,4.1,4.1c0,2.3-1.8,4.1-4.1,4.1C2,8.4,0.1,6.5,0.1,4.3C0.1,2,2,0.1,4.3,0.1"/>
	<path class="st1" d="M6.8,4.2L6.8,4.2c0,0.1-0.1,0.2-0.2,0.2c-0.1,0-2.6,0-2.8,0c0,0.1-0.1,0.2-0.1,0.2C3.7,4.8,3.6,4.9,3.4,5
		C3.2,5,3,5,2.8,4.9C2.7,4.8,2.6,4.8,2.5,4.6c-0.1-0.1,0-0.1-0.1-0.2c-0.2,0-0.3,0-0.5,0c-0.1,0-0.1,0-0.2-0.1c0,0-0.1-0.1-0.1-0.2
		v0c0-0.1,0-0.1,0.1-0.2C1.8,4,1.9,4,1.9,4c0.2,0,0.3,0,0.5,0c0,0,0-0.1,0-0.1c0.1-0.1,0.1-0.2,0.2-0.3c0,0,0.1,0,0.1-0.1
		c0.2-0.2,0.6-0.1,0.8,0.1C3.7,3.7,3.9,3.9,3.9,4c0.2,0,2.7,0,2.8,0C6.8,4.1,6.8,4.1,6.8,4.2 M6.8,2.5L6.8,2.5c0,0.1,0,0.2-0.1,0.2
		c-0.1,0-0.1,0-0.2,0c-0.2,0-0.3,0-0.5,0C6,2.9,6,3,5.8,3.1C5.6,3.2,5.5,3.3,5.3,3.3C5,3.3,4.8,3.1,4.6,2.9c0,0,0-0.1,0-0.1
		c-0.8,0-1.6,0-2.4,0c-0.2,0-0.6,0.1-0.6-0.2c0-0.3,0.3-0.2,0.6-0.2h2.4c0-0.1,0-0.1,0.1-0.2c0.2-0.3,0.7-0.4,1.1-0.2
		C5.9,2,6,2.2,6,2.3c0.2,0,0.3,0,0.5,0c0.1,0,0.2,0,0.2,0C6.8,2.4,6.8,2.5,6.8,2.5z M6.8,6L6.8,6c0,0.1,0,0.2-0.1,0.2
		c-0.1,0-0.1,0-0.2,0c-0.2,0-0.3,0-0.5,0C6,6.2,6,6.4,5.9,6.4C5.5,6.9,4.9,6.8,4.6,6.3c0,0,0-0.1,0-0.1l-2.8,0
		C1.7,6.2,1.7,6.1,1.7,6v0c0-0.1,0.1-0.2,0.2-0.2l2.7,0c0,0,0-0.1,0-0.1c0.1-0.1,0.1-0.2,0.2-0.3C5,5.3,5.2,5.2,5.4,5.2
		c0.2,0,0.4,0.1,0.5,0.2C6,5.6,6,5.6,6,5.8c0.2,0,0.3,0,0.5,0c0.1,0,0.1,0,0.2,0C6.8,5.8,6.8,5.9,6.8,6z M5,6c0-0.3,0.4-0.4,0.5-0.2
		c0.2,0.2,0,0.6-0.2,0.6c-0.1,0-0.2,0-0.3-0.1C5,6.1,5,6.1,5,6z M5,2.5c0-0.2,0.2-0.3,0.3-0.3h0.1c0.1,0,0.3,0.1,0.3,0.3v0.1
		c0,0.2-0.1,0.3-0.3,0.3C5.2,2.8,5,2.7,5,2.5z M2.9,4.3c0-0.1,0-0.2,0.1-0.3c0.1-0.1,0.3-0.1,0.4,0c0.1,0.1,0.1,0.3,0,0.4
		C3.3,4.5,3.3,4.6,3.2,4.6C3.1,4.6,3,4.5,3,4.5C2.9,4.5,2.9,4.4,2.9,4.3z"/>
</g>
</svg>
