<?xml version="1.0" encoding="utf-8"?>
<!-- Generator: Adobe Illustrator 26.3.1, SVG Export Plug-In . SVG Version: 6.00 Build 0)  -->
<svg version="1.1"
	 id="svg8" xmlns:svg="http://www.w3.org/2000/svg" xmlns:rdf="http://www.w3.org/1999/02/22-rdf-syntax-ns#" xmlns:inkscape="http://www.inkscape.org/namespaces/inkscape" xmlns:dc="http://purl.org/dc/elements/1.1/" xmlns:sodipodi="http://sodipodi.sourceforge.net/DTD/sodipodi-0.dtd" xmlns:cc="http://creativecommons.org/ns#"
	 xmlns="http://www.w3.org/2000/svg" xmlns:xlink="http://www.w3.org/1999/xlink" x="0px" y="0px" viewBox="0 0 8.5 8.5"
	 style="enable-background:new 0 0 8.5 8.5;" xml:space="preserve">
<style type="text/css">
	.st0{fill:#F48565;}
	.st1{fill-rule:evenodd;clip-rule:evenodd;fill:#F48565;}
</style>
<g>
	<path class="st0" d="M6.9,1.6C6.3,0.9,5.3,0.4,4.3,0.4c-1.1,0-2,0.4-2.7,1.1C0.9,2.2,0.4,3.2,0.4,4.2c0,1.1,0.4,2,1.1,2.7
		c0.7,0.7,1.6,1.1,2.7,1.1c1.1,0,2-0.4,2.7-1.1c0.7-0.7,1.1-1.6,1.1-2.7C8.1,3.2,7.6,2.2,6.9,1.6 M4.3,0.1c1.1,0,2.2,0.5,2.9,1.2
		c0.7,0.7,1.2,1.8,1.2,2.9c0,1.1-0.5,2.2-1.2,2.9C6.4,7.9,5.4,8.4,4.3,8.4c-1.1,0-2.2-0.5-2.9-1.2C0.6,6.4,0.1,5.4,0.1,4.2
		c0-1.1,0.5-2.2,1.2-2.9C2.1,0.6,3.1,0.1,4.3,0.1z"/>
	<polygon class="st1" points="4.8,4.8 4.8,6.4 4.2,6.4 3.7,6.4 3.6,6.4 3.6,4.8 2.1,4.8 2.1,3.7 3.6,3.7 3.7,3.7 3.7,2.1 4.2,2.1 
		4.8,2.1 4.8,3.7 4.8,3.7 6,3.7 6.4,3.7 6.4,4.8 4.8,4.8 	"/>
</g>
</svg>
