<?xml version="1.0" encoding="utf-8"?>
<!-- Generator: Adobe Illustrator 26.3.1, SVG Export Plug-In . SVG Version: 6.00 Build 0)  -->
<svg version="1.1"
	 id="svg8" xmlns:svg="http://www.w3.org/2000/svg" xmlns:rdf="http://www.w3.org/1999/02/22-rdf-syntax-ns#" xmlns:inkscape="http://www.inkscape.org/namespaces/inkscape" xmlns:dc="http://purl.org/dc/elements/1.1/" xmlns:sodipodi="http://sodipodi.sourceforge.net/DTD/sodipodi-0.dtd" xmlns:cc="http://creativecommons.org/ns#"
	 xmlns="http://www.w3.org/2000/svg" xmlns:xlink="http://www.w3.org/1999/xlink" x="0px" y="0px" viewBox="0 0 8.5 8.5"
	 style="enable-background:new 0 0 8.5 8.5;" xml:space="preserve">
<style type="text/css">
	.st0{fill-rule:evenodd;clip-rule:evenodd;fill:#91D4D9;}
</style>
<g>
	<path class="st0" d="M6.3,6.6H5.9c-0.1,0-0.2-0.1-0.2-0.2c0-0.1,0.1-0.2,0.2-0.2h0.3c0.5,0,0.8-0.4,0.8-0.8c0-0.5-0.4-0.8-0.8-0.8
		H5.9c-0.1,0-0.2-0.1-0.2-0.2c0-0.1,0.1-0.2,0.2-0.2h0.3c0.6,0,1.2,0.5,1.2,1.2S6.9,6.6,6.3,6.6"/>
	<path class="st0" d="M5.9,2C5.9,2,5.9,2,5.9,2c0.2,0.1,0.4,0.1,0.5,0c0.2-0.1,0.2-0.5,0.2-0.8C6.5,1,6.3,0.8,6.2,0.7
		C6.2,1,6,1.2,5.9,1.4C5.8,1.4,5.8,1.5,5.7,1.6c0,0.1,0,0.2,0,0.3C5.8,1.9,5.8,2,5.9,2C5.9,2,5.9,2,5.9,2C5.9,2,5.9,2,5.9,2
		 M5.2,3.6h0.3l0.4-1.2c0,0,0,0-0.1,0L5.2,3.6z M1.7,3.9v3.5c0,0.3,0.2,0.5,0.5,0.5h3c0.3,0,0.5-0.2,0.5-0.5V3.9H4.9c0,0,0,0,0,0
		H1.7z M5.2,8.3h-3c-0.5,0-0.8-0.4-0.8-0.8V3.7c0-0.1,0.1-0.2,0.2-0.2h3.3l0.8-1.4C5.5,2.1,5.5,2.1,5.4,2c-0.1-0.2-0.1-0.4,0-0.6
		c0-0.1,0.1-0.2,0.2-0.3c0.2-0.2,0.3-0.4,0.1-0.7c0-0.1,0-0.1,0-0.2c0-0.1,0.1-0.1,0.2-0.1c0.5,0.1,0.8,0.5,0.9,0.9
		C7,1.6,6.8,2,6.6,2.3C6.5,2.4,6.4,2.4,6.3,2.4L5.8,3.6h0.1c0.1,0,0.2,0.1,0.2,0.2v3.7C6.1,7.9,5.7,8.3,5.2,8.3z"/>
	<path class="st0" d="M1.4,2l0.1,0.4l0.3-0.2L1.4,2z M2,3.6h0.6L2,2.5L1.6,2.8L2,3.6z M2.9,3.9h-1c-0.1,0-0.1,0-0.2-0.1l-0.5-1
		c0,0,0,0,0-0.1L1,1.7c0-0.1,0-0.1,0.1-0.2c0.1,0,0.1,0,0.2,0l0.8,0.5c0,0,0,0,0.1,0c0,0,0,0,0,0c0,0,0,0,0,0c0,0,0,0,0,0v0
		c0,0,0,0,0,0v0c0,0,0,0,0,0l0,0c0,0,0,0,0,0c0,0,0,0,0,0L3,3.6c0,0.1,0,0.1,0,0.2C3,3.9,2.9,3.9,2.9,3.9z"/>
	<path class="st0" d="M3.4,3.6h1V3.2H4.2c-0.1,0-0.2-0.1-0.2-0.2c0-0.1,0.1-0.2,0.2-0.2h0.2V2.6H3.9c-0.1,0-0.2-0.1-0.2-0.2
		c0-0.1,0.1-0.2,0.2-0.2h0.5V1.9H4.2c-0.1,0-0.2-0.1-0.2-0.2c0-0.1,0.1-0.2,0.2-0.2h0.2V1.2H3.9C3.8,1.2,3.7,1.1,3.7,1
		s0.1-0.2,0.2-0.2h0.5V0.5h-1V3.6z M4.6,3.9H3.2c-0.1,0-0.2-0.1-0.2-0.2V0.4c0-0.1,0.1-0.2,0.2-0.2h1.3c0.1,0,0.2,0.1,0.2,0.2v3.4
		C4.7,3.8,4.7,3.9,4.6,3.9z"/>
</g>
</svg>
