<?xml version="1.0" encoding="utf-8"?>
<!-- Generator: Adobe Illustrator 26.5.0, SVG Export Plug-In . SVG Version: 6.00 Build 0)  -->
<svg version="1.1"
	 id="svg8" xmlns:sodipodi="http://sodipodi.sourceforge.net/DTD/sodipodi-0.dtd" xmlns:svg="http://www.w3.org/2000/svg" xmlns:dc="http://purl.org/dc/elements/1.1/" xmlns:inkscape="http://www.inkscape.org/namespaces/inkscape" xmlns:rdf="http://www.w3.org/1999/02/22-rdf-syntax-ns#" xmlns:cc="http://creativecommons.org/ns#"
	 xmlns="http://www.w3.org/2000/svg" xmlns:xlink="http://www.w3.org/1999/xlink" x="0px" y="0px" viewBox="0 0 10.6 13.1"
	 style="enable-background:new 0 0 10.6 13.1;" xml:space="preserve">
<style type="text/css">
	.st0{fill:#009BA8;}
</style>
<path class="st0" d="M8.3,4.7c0-0.1,0-0.2,0-0.3C8.2,3.9,7.8,3.5,7.1,3.5c-1.8,0-3.6,0-5.4,0c-0.1,0-0.2,0-0.2,0
	C0.9,3.7,0.5,4.1,0.5,4.7c0,1.8,0,3.6,0,5.4c0,0.1,0,0.2,0,0.3c0.1,0.5,0.6,0.9,1.2,0.9c1.8,0,3.6,0,5.4,0c0.1,0,0.2,0,0.3,0
	c0.5-0.1,0.9-0.6,0.9-1.1c0-0.9,0-1.8,0-2.7C8.3,6.5,8.3,5.6,8.3,4.7 M10.1,3c0-0.7-0.5-1.2-1.2-1.2c-1.8,0-3.6,0-5.5,0
	C3.2,1.8,3,1.9,2.9,2C2.6,2.1,2.4,2.4,2.3,2.7h0.1c1.7,0,3.3,0,5,0c0.1,0,0.3,0,0.4,0c0.8,0.2,1.4,0.9,1.4,1.7c0,1.7,0,3.3,0,5v0.1
	c0.1,0,0.1,0,0.1,0c0.4-0.2,0.7-0.6,0.7-1.1C10.1,6.6,10.1,4.8,10.1,3z M6.6,7.6C6.5,7.7,6.4,7.9,6.2,7.9c-0.4,0-0.8,0-1.2,0
	c0,0-0.1,0-0.1,0c0,0.4,0,0.7,0,1.1c0,0.1,0,0.2,0,0.3c0,0.2-0.2,0.4-0.5,0.4C4.2,9.6,4,9.4,4,9.2C4,8.8,4,8.4,4,8c0,0,0-0.1,0-0.1
	c0,0-0.1,0-0.1,0c-0.4,0-0.8,0-1.2,0c-0.2,0-0.4-0.1-0.4-0.3c0-0.2,0-0.4,0.2-0.5c0.1,0,0.2,0,0.2,0c0.4,0,0.8,0,1.1,0H4V6.9
	c0-0.4,0-0.8,0-1.1c0-0.3,0.2-0.5,0.4-0.5c0.2,0,0.4,0.2,0.4,0.5c0,0.4,0,0.8,0,1.1c0,0,0,0.1,0,0.1H5c0.4,0,0.8,0,1.2,0
	C6.5,7,6.7,7.3,6.6,7.6z"/>
</svg>
