<?xml version="1.0" encoding="utf-8"?>
<!-- Generator: Adobe Illustrator 26.3.1, SVG Export Plug-In . SVG Version: 6.00 Build 0)  -->
<svg version="1.1"
	 id="svg8" xmlns:svg="http://www.w3.org/2000/svg" xmlns:rdf="http://www.w3.org/1999/02/22-rdf-syntax-ns#" xmlns:inkscape="http://www.inkscape.org/namespaces/inkscape" xmlns:dc="http://purl.org/dc/elements/1.1/" xmlns:sodipodi="http://sodipodi.sourceforge.net/DTD/sodipodi-0.dtd" xmlns:cc="http://creativecommons.org/ns#"
	 xmlns="http://www.w3.org/2000/svg" xmlns:xlink="http://www.w3.org/1999/xlink" x="0px" y="0px" viewBox="0 0 8.5 8.5"
	 style="enable-background:new 0 0 8.5 8.5;" xml:space="preserve">
<style type="text/css">
	.st0{fill-rule:evenodd;clip-rule:evenodd;fill:#91D4D9;}
</style>
<path class="st0" d="M5.3,3.3c0.1-0.2,0.2-0.2,0.4-0.2c0.2,0.1,0.2,0.3,0.2,0.4l-1.8,3c0,0.1-0.2,0.2-0.3,0.2c0,0-0.1,0-0.1,0
	c-0.1,0-0.1-0.1-0.2-0.1c0,0,0,0,0,0L2.6,5.2C2.6,5,2.6,4.8,2.7,4.7c0.1-0.1,0.3,0,0.4,0.1l0.6,0.9L5.3,3.3z M6.1,0.7
	C5.9,0.5,5.3,0.2,5.3,0.3c0,0.1,0.4,0.3,0.4,0.9v0.5c0,0.3,0.2,0.6,0.5,0.6l0.3,0c0.6,0,0.9,0.3,1,0.3C7.6,2.5,7.2,2,7,1.8L6.1,0.7z
	 M1.5,8.3H7c0.3,0,0.5-0.3,0.5-0.6V3.2c0-0.3-0.2-0.6-0.5-0.6l-1.1,0c-0.3,0-0.5-0.2-0.6-0.6l0-1.3c0-0.3-0.3-0.6-0.6-0.6H1.5
	C1.2,0.2,1,0.5,1,0.8v7C1,8,1.2,8.3,1.5,8.3z"/>
</svg>
