<svg xmlns="http://www.w3.org/2000/svg" xmlns:svgjs="http://svgjs.com/svgjs" xmlns:xlink="http://www.w3.org/1999/xlink" width="288" height="288"><svg xmlns="http://www.w3.org/2000/svg" xmlns:svgjs="http://svgjs.com/svgjs" xmlns:xlink="http://www.w3.org/1999/xlink" width="288" height="288" viewBox="0 0 288 288"><svg xmlns="http://www.w3.org/2000/svg" width="288" height="288" enable-background="new 0 0 8.5 8.5" viewBox="0 0 8.5 8.5"><path fill="#eb8668" fill-rule="evenodd" d="M6.4,7c0,0.2-0.1,0.3-0.3,0.3H2.4C2.2,7.3,2.1,7.2,2.1,7l0-3.1V1.5c0-0.2,0.1-0.3,0.3-0.3h2.1v1.1	c0,0.4,0.4,0.8,0.8,0.8l1.2,0V7z M6.2,2.6H5.9H5.2v0c-0.2,0-0.3-0.1-0.3-0.3V1.6V1.4L6.2,2.6z M5.8,6.3H3.9c-0.1,0-0.1,0.1-0.1,0.1
	c0,0.1,0.1,0.1,0.1,0.1h1.9c0.1,0,0.1-0.1,0.1-0.1C5.9,6.4,5.8,6.3,5.8,6.3z M3.4,4.7L2.9,5.1L2.8,4.9c0,0-0.1,0-0.2,0
	c0,0,0,0.1,0,0.2l0.2,0.2c0,0,0.1,0,0.1,0c0,0,0.1,0,0.1,0l0.6-0.5c0.1,0,0.1-0.1,0-0.2C3.6,4.6,3.5,4.6,3.4,4.7z M5.8,5H3.9
	C3.8,5,3.8,5.1,3.8,5.1c0,0.1,0.1,0.1,0.1,0.1h1.9c0.1,0,0.1-0.1,0.1-0.1C5.9,5.1,5.8,5,5.8,5z M3.4,3.4L2.9,3.8L2.8,3.6
	c0,0-0.1,0-0.2,0c0,0,0,0.1,0,0.2L2.8,4c0,0,0.1,0,0.1,0C2.9,4,3,4,3,4l0.6-0.5c0.1,0,0.1-0.1,0-0.2C3.6,3.3,3.5,3.3,3.4,3.4z
	 M5.8,3.7H3.9c-0.1,0-0.1,0.1-0.1,0.1c0,0.1,0.1,0.1,0.1,0.1h1.9c0.1,0,0.1-0.1,0.1-0.1C5.9,3.7,5.8,3.7,5.8,3.7z M3.4,6L2.9,6.4
	L2.8,6.2c0,0-0.1,0-0.2,0c0,0,0,0.1,0,0.2l0.2,0.2c0,0,0.1,0,0.1,0c0,0,0.1,0,0.1,0l0.6-0.5c0.1,0,0.1-0.1,0-0.2
	C3.6,5.9,3.5,5.9,3.4,6z M6.9,2.8c0-0.1-0.1-0.3-0.2-0.4L5.1,0.9C5,0.8,4.9,0.7,4.7,0.7l0,0H2.4c-0.4,0-0.8,0.4-0.8,0.8v2.4l0,3.1
	c0,0.4,0.4,0.8,0.8,0.8h3.7c0.4,0,0.8-0.3,0.8-0.8L6.9,2.8L6.9,2.8z" class="colorf48565 svgShape color91d4d9" clip-rule="evenodd"/></svg></svg></svg>