<svg xmlns="http://www.w3.org/2000/svg" xmlns:svgjs="http://svgjs.com/svgjs" xmlns:xlink="http://www.w3.org/1999/xlink" width="288" height="288"><svg xmlns="http://www.w3.org/2000/svg" width="288" height="288" enable-background="new 0 0 8.5 8.5" viewBox="0 0 8.5 8.5"><path fill="#eb8668" fill-rule="evenodd" d="M5.3,3.3c0.1-0.2,0.2-0.2,0.4-0.2c0.2,0.1,0.2,0.3,0.2,0.4l-1.8,3c0,0.1-0.2,0.2-0.3,0.2c0,0-0.1,0-0.1,0
	c-0.1,0-0.1-0.1-0.2-0.1c0,0,0,0,0,0L2.6,5.2C2.6,5,2.6,4.8,2.7,4.7c0.1-0.1,0.3,0,0.4,0.1l0.6,0.9L5.3,3.3z M6.1,0.7
	C5.9,0.5,5.3,0.2,5.3,0.3c0,0.1,0.4,0.3,0.4,0.9v0.5c0,0.3,0.2,0.6,0.5,0.6l0.3,0c0.6,0,0.9,0.3,1,0.3C7.6,2.5,7.2,2,7,1.8L6.1,0.7z
	 M1.5,8.3H7c0.3,0,0.5-0.3,0.5-0.6V3.2c0-0.3-0.2-0.6-0.5-0.6l-1.1,0c-0.3,0-0.5-0.2-0.6-0.6l0-1.3c0-0.3-0.3-0.6-0.6-0.6H1.5
	C1.2,0.2,1,0.5,1,0.8v7C1,8,1.2,8.3,1.5,8.3z" class="color91d4d9 svgShape" clip-rule="evenodd"/></svg></svg>