<?xml version="1.0" encoding="utf-8"?>
<!-- Generator: Adobe Illustrator 26.5.0, SVG Export Plug-In . SVG Version: 6.00 Build 0)  -->
<svg version="1.1"
	 id="svg8" xmlns:sodipodi="http://sodipodi.sourceforge.net/DTD/sodipodi-0.dtd" xmlns:svg="http://www.w3.org/2000/svg" xmlns:dc="http://purl.org/dc/elements/1.1/" xmlns:inkscape="http://www.inkscape.org/namespaces/inkscape" xmlns:rdf="http://www.w3.org/1999/02/22-rdf-syntax-ns#" xmlns:cc="http://creativecommons.org/ns#"
	 xmlns="http://www.w3.org/2000/svg" xmlns:xlink="http://www.w3.org/1999/xlink" x="0px" y="0px" viewBox="0 0 10.6 13.1"
	 style="enable-background:new 0 0 10.6 13.1;" xml:space="preserve">
<style type="text/css">
	.st0{fill-rule:evenodd;clip-rule:evenodd;fill:#FFFFFF;}
</style>
<path class="st0" d="M6.7,5.3C6.8,5.1,7,5,7.3,5.1c0.2,0.1,0.3,0.3,0.2,0.6L5.1,9.8C5,10,4.8,10.1,4.7,10.1c-0.1,0-0.1,0-0.2,0
	C4.4,10,4.4,10,4.3,9.9c0,0,0,0,0,0l-1.2-2C3,7.6,3,7.4,3.2,7.2c0.2-0.1,0.5-0.1,0.6,0.2l0.8,1.3L6.7,5.3z M7.8,1.7
	c-0.3-0.3-1-0.7-1-0.6c0,0.1,0.5,0.5,0.5,1.3V3c0,0.4,0.3,0.8,0.7,0.8l0.4,0c0.8,0,1.2,0.5,1.3,0.5c0.1,0-0.5-0.7-0.7-1.1L7.8,1.7z
	 M1.5,12.2h7.5c0.4,0,0.7-0.4,0.7-0.8V5.1c0-0.4-0.3-0.8-0.7-0.8l-1.6,0C7.1,4.3,6.7,4,6.7,3.6l0-1.8C6.7,1.3,6.3,1,5.9,1H1.5
	C1.1,1,0.8,1.3,0.8,1.8v9.6C0.8,11.8,1.1,12.2,1.5,12.2z"/>
</svg>
