<?xml version="1.0" encoding="utf-8"?>
<!-- Generator: Adobe Illustrator 26.5.0, SVG Export Plug-In . SVG Version: 6.00 Build 0)  -->
<svg version="1.1"
	 id="svg8" xmlns:sodipodi="http://sodipodi.sourceforge.net/DTD/sodipodi-0.dtd" xmlns:svg="http://www.w3.org/2000/svg" xmlns:dc="http://purl.org/dc/elements/1.1/" xmlns:inkscape="http://www.inkscape.org/namespaces/inkscape" xmlns:rdf="http://www.w3.org/1999/02/22-rdf-syntax-ns#" xmlns:cc="http://creativecommons.org/ns#"
	 xmlns="http://www.w3.org/2000/svg" xmlns:xlink="http://www.w3.org/1999/xlink" x="0px" y="0px" viewBox="0 0 10.6 13.1"
	 style="enable-background:new 0 0 10.6 13.1;" xml:space="preserve">
<style type="text/css">
	.st0{fill:#009BA8;}
</style>
<path class="st0" d="M0.6,12.7V12h0.7c0-0.2,0-0.4,0-0.5c0.1-0.9,0.4-1.8,1-2.6C2.6,8.6,2.9,8.3,3.2,8c0.2-0.3,0.5-0.5,0.7-0.7
	c0.4-0.4,0.4-1,0-1.4C3.7,5.6,3.4,5.4,3.2,5.1C2.8,4.7,2.4,4.3,2.1,3.9c-0.4-0.6-0.6-1.3-0.7-2c0-0.2,0-0.5-0.1-0.7H0.6V0.4H10v0.7
	H9.3c0,0.2,0,0.5-0.1,0.7C9.1,2.9,8.6,3.9,7.8,4.7C7.5,5,7.2,5.3,6.9,5.6C6.7,5.8,6.5,6,6.4,6.2c-0.1,0.4,0,0.7,0.2,1
	c0.1,0.2,0.3,0.3,0.4,0.4C7.4,8,7.8,8.4,8.1,8.7c0.6,0.6,0.9,1.4,1,2.3c0.1,0.3,0.1,0.7,0.1,1H10v0.7H0.6z M2.1,1.1
	c0,0.5,0.1,1,0.3,1.5c0,0.1,0.1,0.1,0.2,0.1c1.6,0,3.3,0,4.9,0c0.2,0,0.5,0,0.7,0c0,0,0.1,0,0.1-0.1c0.2-0.5,0.3-1.1,0.3-1.6H2.1z
	 M2.4,10.3c0.4-0.2,0.7-0.3,1.1-0.5c0.4-0.2,0.9-0.4,1.3-0.5c0.1,0,0.1-0.1,0.1-0.2c0-0.7,0-1.5,0-2.2V6.8C4.9,7.3,4.6,7.6,4.3,7.9
	C4.1,8.2,3.8,8.4,3.5,8.7C3,9.1,2.6,9.7,2.4,10.3z M5.7,9.2c0.8,0.3,1.7,0.7,2.5,1c0,0,0-0.1,0-0.1C8,9.8,7.8,9.4,7.5,9.1
	c-0.3-0.3-0.7-0.7-1-1C6.1,7.8,5.8,7.4,5.7,6.8V9.2z"/>
</svg>
