<svg xmlns="http://www.w3.org/2000/svg" xmlns:svgjs="http://svgjs.com/svgjs" xmlns:xlink="http://www.w3.org/1999/xlink" width="288" height="288"><svg xmlns="http://www.w3.org/2000/svg" width="288" height="288" enable-background="new 0 0 8.5 8.5" viewBox="0 0 8.5 8.5"><path fill="#eb8668" fill-rule="evenodd" d="M6.3,6.6H5.9c-0.1,0-0.2-0.1-0.2-0.2c0-0.1,0.1-0.2,0.2-0.2h0.3c0.5,0,0.8-0.4,0.8-0.8c0-0.5-0.4-0.8-0.8-0.8
		H5.9c-0.1,0-0.2-0.1-0.2-0.2c0-0.1,0.1-0.2,0.2-0.2h0.3c0.6,0,1.2,0.5,1.2,1.2S6.9,6.6,6.3,6.6" class="color91d4d9 svgShape" clip-rule="evenodd"/><path fill="#eb8668" fill-rule="evenodd" d="M5.9,2C5.9,2,5.9,2,5.9,2c0.2,0.1,0.4,0.1,0.5,0c0.2-0.1,0.2-0.5,0.2-0.8C6.5,1,6.3,0.8,6.2,0.7
		C6.2,1,6,1.2,5.9,1.4C5.8,1.4,5.8,1.5,5.7,1.6c0,0.1,0,0.2,0,0.3C5.8,1.9,5.8,2,5.9,2C5.9,2,5.9,2,5.9,2C5.9,2,5.9,2,5.9,2
		 M5.2,3.6h0.3l0.4-1.2c0,0,0,0-0.1,0L5.2,3.6z M1.7,3.9v3.5c0,0.3,0.2,0.5,0.5,0.5h3c0.3,0,0.5-0.2,0.5-0.5V3.9H4.9c0,0,0,0,0,0
		H1.7z M5.2,8.3h-3c-0.5,0-0.8-0.4-0.8-0.8V3.7c0-0.1,0.1-0.2,0.2-0.2h3.3l0.8-1.4C5.5,2.1,5.5,2.1,5.4,2c-0.1-0.2-0.1-0.4,0-0.6
		c0-0.1,0.1-0.2,0.2-0.3c0.2-0.2,0.3-0.4,0.1-0.7c0-0.1,0-0.1,0-0.2c0-0.1,0.1-0.1,0.2-0.1c0.5,0.1,0.8,0.5,0.9,0.9
		C7,1.6,6.8,2,6.6,2.3C6.5,2.4,6.4,2.4,6.3,2.4L5.8,3.6h0.1c0.1,0,0.2,0.1,0.2,0.2v3.7C6.1,7.9,5.7,8.3,5.2,8.3z" class="color91d4d9 svgShape" clip-rule="evenodd"/><path fill="#eb8668" fill-rule="evenodd" d="M1.4 2l.1.4.3-.2L1.4 2zM2 3.6h.6L2 2.5 1.6 2.8 2 3.6zM2.9 3.9h-1c-.1 0-.1 0-.2-.1l-.5-1c0 0 0 0 0-.1L1 1.7c0-.1 0-.1.1-.2.1 0 .1 0 .2 0l.8.5c0 0 0 0 .1 0 0 0 0 0 0 0 0 0 0 0 0 0 0 0 0 0 0 0v0c0 0 0 0 0 0v0c0 0 0 0 0 0l0 0c0 0 0 0 0 0 0 0 0 0 0 0L3 3.6c0 .1 0 .1 0 .2C3 3.9 2.9 3.9 2.9 3.9zM3.4 3.6h1V3.2H4.2c-.1 0-.2-.1-.2-.2 0-.1.1-.2.2-.2h.2V2.6H3.9c-.1 0-.2-.1-.2-.2 0-.1.1-.2.2-.2h.5V1.9H4.2c-.1 0-.2-.1-.2-.2 0-.1.1-.2.2-.2h.2V1.2H3.9C3.8 1.2 3.7 1.1 3.7 1s.1-.2.2-.2h.5V.5h-1V3.6zM4.6 3.9H3.2c-.1 0-.2-.1-.2-.2V.4c0-.1.1-.2.2-.2h1.3c.1 0 .2.1.2.2v3.4C4.7 3.8 4.7 3.9 4.6 3.9z" class="color91d4d9 svgShape" clip-rule="evenodd"/></svg></svg>