<?xml version="1.0" encoding="utf-8"?>
<!-- Generator: Adobe Illustrator 26.5.0, SVG Export Plug-In . SVG Version: 6.00 Build 0)  -->
<svg version="1.1"
	 id="svg8" xmlns:sodipodi="http://sodipodi.sourceforge.net/DTD/sodipodi-0.dtd" xmlns:svg="http://www.w3.org/2000/svg" xmlns:dc="http://purl.org/dc/elements/1.1/" xmlns:inkscape="http://www.inkscape.org/namespaces/inkscape" xmlns:rdf="http://www.w3.org/1999/02/22-rdf-syntax-ns#" xmlns:cc="http://creativecommons.org/ns#"
	 xmlns="http://www.w3.org/2000/svg" xmlns:xlink="http://www.w3.org/1999/xlink" x="0px" y="0px" viewBox="0 0 10.6 13.1"
	 style="enable-background:new 0 0 10.6 13.1;" xml:space="preserve">
<style type="text/css">
	.st0{fill-rule:evenodd;clip-rule:evenodd;fill:#FFFFFF;}
</style>
<path class="st0" d="M7.9,3.8c0,0.3,0.3,0.5,0.5,0.5c0.2,0,0.5-0.2,0.5-0.5V3.8c0-0.4-0.5-0.7-0.9-0.3C8,3.6,7.9,3.7,7.9,3.8 M9,6.8
	C9,7,9.1,7.1,9.2,7.2c0,0,0,0,0,0c0.6,0.6,1.5-0.3,0.9-0.9C10,6.3,10,6.2,9.9,6.2C9.5,6,9,6.3,9,6.8z M8.4,8.9c-0.2,0-0.3,0-0.5,0.2
	c-0.5,0.5,0,1.3,0.5,1.2c0.2,0,0.4-0.1,0.5-0.2C9.1,10,9.2,9.8,9.2,9.6C9.1,9.2,8.7,8.9,8.4,8.9z M4.7,10.9c0,0.3,0.1,0.4,0.2,0.6
	c0,0,0,0,0,0l0,0c0.1,0.1,0.3,0.2,0.5,0.2h0.2c0.4,0,0.8-0.4,0.8-0.7c0-0.3,0-0.5-0.2-0.7c-0.3-0.2-0.7-0.3-1-0.1
	C4.9,10.3,4.7,10.6,4.7,10.9z M1.7,9.6c0,0.2,0,0.3,0.1,0.5c0,0.1,0,0.1,0.1,0.1c0.1,0.1,0.2,0.2,0.4,0.3c0.7,0.3,1.3-0.3,1.3-0.8
	c0-0.3,0-0.5-0.3-0.7C3,8.7,2.6,8.7,2.2,8.8c0,0-0.1,0-0.1,0.1C2,8.9,1.8,9.1,1.8,9.2C1.7,9.3,1.7,9.4,1.7,9.6z M0.3,6.7
	c0,0.2,0.1,0.5,0.2,0.6c0.4,0.5,1,0.6,1.5,0.3c0.2-0.1,0.3-0.2,0.4-0.4c0.3-0.7-0.2-1.5-0.9-1.5C1,5.7,0.8,5.8,0.6,6
	C0.4,6.2,0.3,6.4,0.3,6.7z M1.4,3.8c0,0.3,0.1,0.6,0.3,0.8C2.1,5,2.7,5.1,3.1,4.9c0.5-0.3,0.7-1,0.5-1.5C3.4,2.8,2.7,2.5,2.1,2.8
	C2,2.9,2,2.9,1.9,3C1.6,3.2,1.4,3.5,1.4,3.8z M5.2,7.3c0,0-0.5-0.5-0.5-0.5C4.6,6.7,4.5,6.6,4.4,6.5C4.3,6.4,4.2,6.3,4,6.3
	c-0.2,0-0.2,0.1-0.3,0.2C3.6,6.7,3.5,6.7,3.5,6.9c0,0.1,0.1,0.2,0.1,0.3c0.1,0.1,0.1,0.1,0.2,0.2l1.1,1.1C5,8.6,5.1,8.6,5.2,8.6
	c0.1,0,0.2-0.1,0.2-0.2l2.3-2.3C7.9,6,7.9,6,7.9,5.8c0-0.1,0-0.1-0.1-0.2c0-0.1-0.1-0.1-0.1-0.1C7.6,5.4,7.6,5.3,7.4,5.3
	C7.2,5.3,7.1,5.4,7,5.5C6.8,5.7,5.3,7.3,5.2,7.3z M4.3,2.5c0,0.3,0,0.4,0.1,0.7c0.1,0.1,0.1,0.2,0.2,0.3c0.7,0.7,2.1,0.3,2.1-0.9
	c0-0.7-0.6-1.2-1.2-1.2c-0.4,0-0.7,0.1-0.9,0.4C4.4,1.9,4.3,2.2,4.3,2.5z"/>
</svg>
