<?xml version="1.0" encoding="utf-8"?>
<!-- Generator: Adobe Illustrator 26.3.1, SVG Export Plug-In . SVG Version: 6.00 Build 0)  -->
<svg version="1.1"
	 id="svg8" xmlns:svg="http://www.w3.org/2000/svg" xmlns:rdf="http://www.w3.org/1999/02/22-rdf-syntax-ns#" xmlns:inkscape="http://www.inkscape.org/namespaces/inkscape" xmlns:dc="http://purl.org/dc/elements/1.1/" xmlns:sodipodi="http://sodipodi.sourceforge.net/DTD/sodipodi-0.dtd" xmlns:cc="http://creativecommons.org/ns#"
	 xmlns="http://www.w3.org/2000/svg" xmlns:xlink="http://www.w3.org/1999/xlink" x="0px" y="0px" viewBox="0 0 8.5 8.5"
	 style="enable-background:new 0 0 8.5 8.5;" xml:space="preserve">
<style type="text/css">
	.st0{fill-rule:evenodd;clip-rule:evenodd;fill:#91D4D9;}
</style>
<path class="st0" d="M5.2,3.4c0.1-0.2,0.2-0.2,0.4-0.2c0.1,0.1,0.2,0.2,0.2,0.4L4.1,6.5c0,0.1-0.2,0.2-0.3,0.2c0,0-0.1,0-0.1,0
	c-0.1,0-0.1-0.1-0.1-0.1c0,0,0,0,0,0L2.7,5.1C2.6,5,2.7,4.8,2.8,4.7c0.1-0.1,0.3,0,0.4,0.1l0.6,0.9L5.2,3.4z M6,0.8
	C5.8,0.6,5.3,0.3,5.3,0.4c0,0.1,0.3,0.3,0.3,0.9v0.4c0,0.3,0.2,0.5,0.5,0.5l0.3,0c0.6,0,0.9,0.3,0.9,0.3c0.1,0-0.3-0.5-0.5-0.7
	L6,0.8z M1.6,8.1h5.2c0.3,0,0.5-0.2,0.5-0.5V3.2c0-0.3-0.2-0.5-0.5-0.5l-1.1,0c-0.3,0-0.5-0.2-0.5-0.5l0-1.2c0-0.3-0.2-0.5-0.5-0.5
	h-3c-0.3,0-0.5,0.2-0.5,0.5v6.6C1.1,7.8,1.3,8.1,1.6,8.1z"/>
</svg>
