<svg xmlns="http://www.w3.org/2000/svg" xmlns:svgjs="http://svgjs.com/svgjs" xmlns:xlink="http://www.w3.org/1999/xlink" width="288" height="288"><svg xmlns="http://www.w3.org/2000/svg" width="288" height="288" enable-background="new 0 0 10.6 13.1" viewBox="0 0 10.6 13.1"><path fill="#91d4d9" fill-rule="evenodd" d="M0.6,3.8c0,0.2,0,0.3,0.2,0.5c0.2,0.2,0.6,0.2,0.8,0c0.5-0.5-0.1-1.3-0.6-1C0.7,3.4,0.6,3.6,0.6,3.8 M0.6,6.5
	c0,0.3,0.3,0.6,0.6,0.6h0.1c0.2,0,0.5-0.3,0.5-0.5c0-0.2,0-0.3-0.2-0.5C1.2,5.8,0.6,6.1,0.6,6.5z M0.6,9.2c0,0.2,0.1,0.3,0.2,0.4
	c0.4,0.4,1,0.1,1-0.3c0-0.2,0-0.2-0.1-0.4C1.4,8.4,0.6,8.6,0.6,9.2z M2.3,9.2c0,0.4,0.3,0.6,0.6,0.6h3.9c0.3,0,0.6-0.3,0.6-0.5
	c0-0.2,0-0.3-0.2-0.5C7.1,8.7,7,8.6,6.8,8.6H2.9C2.6,8.6,2.3,8.9,2.3,9.2z M2.3,3.9c0,0.4,0.3,0.6,0.5,0.6h6c0.3,0,0.5-0.3,0.5-0.5
	c0-0.2,0-0.3-0.2-0.5C9.2,3.4,9.1,3.3,8.9,3.3h-6c-0.1,0-0.3,0.1-0.4,0.2C2.4,3.6,2.3,3.7,2.3,3.9z M2.3,6.5c0,0.4,0.2,0.6,0.6,0.6
	h6.6c0.3,0,0.5-0.3,0.5-0.5c0-0.2,0-0.3-0.2-0.5C9.8,6.1,9.6,6,9.5,6H2.9C2.6,6,2.3,6.3,2.3,6.5z" class="colorf48565 svgShape" clip-rule="evenodd"/></svg></svg>