<?xml version="1.0" encoding="utf-8"?>
<!-- Generator: Adobe Illustrator 26.3.1, SVG Export Plug-In . SVG Version: 6.00 Build 0)  -->
<svg version="1.1"
	 id="svg8" xmlns:svg="http://www.w3.org/2000/svg" xmlns:rdf="http://www.w3.org/1999/02/22-rdf-syntax-ns#" xmlns:inkscape="http://www.inkscape.org/namespaces/inkscape" xmlns:dc="http://purl.org/dc/elements/1.1/" xmlns:sodipodi="http://sodipodi.sourceforge.net/DTD/sodipodi-0.dtd" xmlns:cc="http://creativecommons.org/ns#"
	 xmlns="http://www.w3.org/2000/svg" xmlns:xlink="http://www.w3.org/1999/xlink" x="0px" y="0px" viewBox="0 0 8.5 8.5"
	 style="enable-background:new 0 0 8.5 8.5;" xml:space="preserve">
<style type="text/css">
	.st0{fill:#91D4D9;}
</style>
<path class="st0" d="M5,3.3c-0.2,0-0.3,0.2-0.3,0.3V7h1.4V3.6c0-0.2-0.1-0.3-0.3-0.3H5z M7.9,7V1c0-0.2-0.1-0.4-0.3-0.4H6.9
	C6.7,0.6,6.5,0.8,6.5,1v6H7.9z M2.9,7.1h1.4V4.8c0-0.2-0.1-0.3-0.3-0.3H3.2C3,4.5,2.9,4.6,2.9,4.8V7.1z M1,7.1h1.4V5.6
	c0-0.2-0.1-0.3-0.3-0.3H1.4C1.2,5.3,1,5.5,1,5.6V7.1z M8.2,7.4H0.6V1.6c0-0.1-0.1-0.2-0.2-0.2h0c-0.1,0-0.2,0.1-0.2,0.2v6.1
	c0,0.1,0.1,0.2,0.2,0.2h0c0,0,0,0,0,0h7.8c0.1,0,0.2-0.1,0.2-0.2v0C8.4,7.5,8.3,7.4,8.2,7.4z"/>
</svg>
