<svg xmlns="http://www.w3.org/2000/svg" xmlns:svgjs="http://svgjs.com/svgjs" xmlns:xlink="http://www.w3.org/1999/xlink" width="288" height="288"><svg xmlns="http://www.w3.org/2000/svg" width="288" height="288" enable-background="new 0 0 8.5 8.5" viewBox="0 0 8.5 8.5"><path fill="#eb8668" d="M5,3.3c-0.2,0-0.3,0.2-0.3,0.3V7h1.4V3.6c0-0.2-0.1-0.3-0.3-0.3H5z M7.9,7V1c0-0.2-0.1-0.4-0.3-0.4H6.9
	C6.7,0.6,6.5,0.8,6.5,1v6H7.9z M2.9,7.1h1.4V4.8c0-0.2-0.1-0.3-0.3-0.3H3.2C3,4.5,2.9,4.6,2.9,4.8V7.1z M1,7.1h1.4V5.6
	c0-0.2-0.1-0.3-0.3-0.3H1.4C1.2,5.3,1,5.5,1,5.6V7.1z M8.2,7.4H0.6V1.6c0-0.1-0.1-0.2-0.2-0.2h0c-0.1,0-0.2,0.1-0.2,0.2v6.1
	c0,0.1,0.1,0.2,0.2,0.2h0c0,0,0,0,0,0h7.8c0.1,0,0.2-0.1,0.2-0.2v0C8.4,7.5,8.3,7.4,8.2,7.4z" class="color91d4d9 svgShape"/></svg></svg>