<svg xmlns="http://www.w3.org/2000/svg" enable-background="new 0 0 64 64" viewBox="0 0 64 64"><path fill="#be7e4e" d="M54,63H10c-1.105,0-2-0.895-2-2V12c0-1.105,0.895-2,2-2h44c1.105,0,2,0.895,2,2v49C56,62.105,55.105,63,54,63z"/><path fill="#aa6d43" d="M8,58.32V61c0,1.105,0.895,2,2,2h44c1.105,0,2-0.895,2-2V28.419C48.557,47.631,28.479,61.181,8,58.32z"/><rect width="40" height="47" x="12" y="10" fill="#efece8"/><path fill="#e0e0e0" d="M52,10v47H12v-4h29c3.87,0,7-3.13,7-7V10H52z"/><rect width="3" height="16" x="36" y="37" fill="#dc2f02"/><rect width="3" height="6" x="24" y="47" fill="#dc2f02"/><rect width="3" height="22" x="42" y="31" fill="#65bc6a"/><rect width="3" height="17" x="30" y="36" fill="#65bc6a"/><rect width="3" height="9" x="18" y="44" fill="#65bc6a"/><rect width="3" height="5.091" x="36" y="47.909" fill="#bc0404"/><rect width="3" height="1.909" x="24" y="51.091" fill="#bc0404"/><rect width="3" height="7" x="42" y="46" fill="#398f3e"/><rect width="3" height="5.409" x="30" y="47.591" fill="#398f3e"/><rect width="3" height="2.864" x="18" y="50.136" fill="#398f3e"/><polygon fill="#c4cace" points="52 57 52 60 12 60 12 58 12 57"/><path fill="#ffc008" d="M34,6c0-1.1-0.9-2-2-2c-1.1,0-2,0.9-2,2s0.9,2,2,2C33.1,8,34,7.1,34,6z M32,1c2.76,0,5,2.24,5,5h3c2.21,0,4,1.79,4,4v5c0,0.55-0.45,1-1,1H21c-0.55,0-1-0.45-1-1v-5c0-2.21,1.79-4,4-4h3C27,3.24,29.24,1,32,1z"/><path fill="#ffa10b" d="M20,15c0,0.55,0.45,1,1,1h22c0.55,0,1-0.45,1-1v-5c0-0.667-0.179-1.286-0.467-1.839c-6.409,4.734-15.838,4.18-23.533,4.678V15z"/><path fill="#65bc6a" d="M49.561,16.172c-0.275-0.186-0.624-0.223-0.932-0.101l-5,2c-0.513,0.205-0.762,0.787-0.557,1.3c0.206,0.514,0.787,0.764,1.3,0.558l2.119-0.848l-4.466,7.017l-2.167-3.612c-0.361-0.602-1.354-0.602-1.715,0l-5.341,8.902l-3.094-3.095c-0.223-0.223-0.54-0.33-0.85-0.283c-0.312,0.045-0.584,0.234-0.735,0.512l-5.36,9.826l-3.055-3.055c-0.22-0.22-0.529-0.326-0.84-0.284c-0.309,0.041-0.581,0.225-0.735,0.495l-4,7c-0.274,0.479-0.107,1.09,0.372,1.364C14.66,43.958,14.831,44,14.999,44c0.347,0,0.685-0.181,0.869-0.504l3.351-5.863l3.074,3.074c0.223,0.222,0.538,0.327,0.85,0.283c0.312-0.045,0.584-0.234,0.735-0.512l5.36-9.826l3.055,3.055c0.218,0.218,0.526,0.324,0.829,0.285c0.306-0.037,0.577-0.214,0.735-0.478L39,24.943l2.143,3.571c0.178,0.297,0.498,0.48,0.844,0.485c0.368-0.007,0.671-0.171,0.857-0.463L48,20.435V22c0,0.553,0.448,1,1,1s1-0.447,1-1v-5C50,16.668,49.835,16.358,49.561,16.172z"/><path fill="#fbde08" d="M24.155,8.032c-1.201-0.463-2.464,1.717-1.261,2.181C24.094,10.677,25.357,8.497,24.155,8.032z"/></svg>