<?xml version="1.0" encoding="utf-8"?>
<!-- Generator: Adobe Illustrator 26.3.1, SVG Export Plug-In . SVG Version: 6.00 Build 0)  -->
<svg version="1.1"
	 id="svg8" xmlns:svg="http://www.w3.org/2000/svg" xmlns:rdf="http://www.w3.org/1999/02/22-rdf-syntax-ns#" xmlns:inkscape="http://www.inkscape.org/namespaces/inkscape" xmlns:dc="http://purl.org/dc/elements/1.1/" xmlns:sodipodi="http://sodipodi.sourceforge.net/DTD/sodipodi-0.dtd" xmlns:cc="http://creativecommons.org/ns#"
	 xmlns="http://www.w3.org/2000/svg" xmlns:xlink="http://www.w3.org/1999/xlink" x="0px" y="0px" viewBox="0 0 8.5 8.5"
	 style="enable-background:new 0 0 8.5 8.5;" xml:space="preserve">
<style type="text/css">
	.st0{fill-rule:evenodd;clip-rule:evenodd;fill:#FFFFFF;}
	.st1{fill-rule:evenodd;clip-rule:evenodd;fill:#009BA8;}
</style>
<g>
	<path class="st0" d="M1.8,0.2h4.8c1,0,1.8,0.8,1.8,1.8v4.6c0,1-0.8,1.8-1.8,1.8H1.8C0.8,8.3,0,7.5,0,6.5V2C0,1,0.8,0.2,1.8,0.2"/>
	<path class="st1" d="M3.9,5.2c0,0-0.3-0.3-0.3-0.3C3.5,4.8,3.5,4.7,3.4,4.7C3.3,4.6,3.3,4.6,3.2,4.6C3.1,4.6,3,4.6,3,4.7
		C2.9,4.8,2.8,4.8,2.8,4.9c0,0.1,0,0.1,0.1,0.2c0,0,0.1,0.1,0.1,0.1l0.7,0.7C3.8,6,3.8,6,3.9,6C4,6,4,6,4.1,5.9l1.5-1.5
		c0.1-0.1,0.1-0.1,0.1-0.2c0-0.1,0-0.1,0-0.1c0,0-0.1-0.1-0.1-0.1C5.5,4,5.4,3.9,5.3,3.9C5.2,3.9,5.1,4,5.1,4C4.9,4.2,4,5.2,3.9,5.2
		 M5.8,3H5.6H5.1v0C4.9,3,4.8,2.9,4.8,2.7V2.2V1.9L5.8,3z M6.4,3.1c0-0.1-0.1-0.2-0.2-0.3L5,1.6C4.9,1.5,4.8,1.4,4.6,1.4l0,0H2.8
		C2.4,1.4,2.1,1.7,2.1,2v2l0,2.5c0,0.3,0.3,0.6,0.6,0.6h3c0.3,0,0.6-0.3,0.6-0.6L6.4,3.1L6.4,3.1z"/>
</g>
</svg>
