<svg xmlns="http://www.w3.org/2000/svg" viewBox="0 0 32 32"><g data-name="Layer 2"><line x1="12.996" x2="17.946" y1="18.818" y2="13.869" fill="#bbf"/><path fill="#bbf" d="M27.841,3.965h0a1.428,1.428,0,0,0-1.606-.288L4.615,13.611a1.5,1.5,0,0,0,.2,2.8L13,18.818l1.88,8.461a1.5,1.5,0,0,0,2.82.316L28.122,5.586A1.428,1.428,0,0,0,27.841,3.965Z"/><path fill="#4c46c8" d="M28.549,3.259a2.431,2.431,0,0,0-2.732-.49L4.2,12.7a2.5,2.5,0,0,0,.339,4.67l7.612,2.239L13.9,27.5a2.473,2.473,0,0,0,2.163,1.942,2.888,2.888,0,0,0,.292.016A2.465,2.465,0,0,0,18.6,28.023L29.026,6.013A2.434,2.434,0,0,0,28.549,3.259Zm-1.33,1.9L16.793,27.167a.5.5,0,0,1-.94-.105l-1.761-7.925,4.561-4.562a1,1,0,0,0-1.414-1.414l-4.53,4.531L5.1,15.454a.5.5,0,0,1-.068-.935l21.62-9.933a.434.434,0,0,1,.179-.039.428.428,0,0,1,.3.124h0A.431.431,0,0,1,27.219,5.158Z"/></g></svg>