<?xml version="1.0" encoding="utf-8"?>
<!-- Generator: Adobe Illustrator 26.3.1, SVG Export Plug-In . SVG Version: 6.00 Build 0)  -->
<svg version="1.1"
	 id="svg8" xmlns:svg="http://www.w3.org/2000/svg" xmlns:rdf="http://www.w3.org/1999/02/22-rdf-syntax-ns#" xmlns:inkscape="http://www.inkscape.org/namespaces/inkscape" xmlns:dc="http://purl.org/dc/elements/1.1/" xmlns:sodipodi="http://sodipodi.sourceforge.net/DTD/sodipodi-0.dtd" xmlns:cc="http://creativecommons.org/ns#"
	 xmlns="http://www.w3.org/2000/svg" xmlns:xlink="http://www.w3.org/1999/xlink" x="0px" y="0px" viewBox="0 0 8.5 8.5"
	 style="enable-background:new 0 0 8.5 8.5;" xml:space="preserve">
<style type="text/css">
	.st0{fill-rule:evenodd;clip-rule:evenodd;fill:#91D4D9;}
</style>
<path class="st0" d="M8.4,4.2L8.4,4.2c0,0.2-0.1,0.4-0.3,0.4c-0.2,0-4.2,0-4.5,0c0,0.1-0.1,0.3-0.2,0.3C3.3,5.2,3.2,5.3,2.9,5.4
	c-0.3,0.1-0.8,0.1-1-0.1C1.7,5.2,1.6,5.1,1.5,4.9C1.4,4.7,1.4,4.7,1.4,4.6c-0.3,0-0.5,0-0.8,0c-0.1,0-0.2,0-0.3-0.1
	C0.1,4.5,0.1,4.4,0.1,4.3V4.2C0.1,4.1,0.1,4,0.2,4c0.1-0.1,0.2-0.1,0.3-0.1c0.3,0,0.5,0,0.8,0c0-0.1,0-0.1,0.1-0.2
	c0.1-0.2,0.2-0.3,0.3-0.4c0,0,0.1-0.1,0.2-0.1c0.4-0.3,1-0.2,1.3,0.1c0.1,0.1,0.4,0.4,0.4,0.6c0.3,0,4.3,0,4.5,0
	C8.3,3.9,8.4,4.1,8.4,4.2 M8.4,1.4L8.4,1.4c0,0.2-0.1,0.3-0.1,0.3C8.2,1.8,8.1,1.8,7.9,1.8c-0.3,0-0.5,0-0.8,0C7,2.1,7,2.2,6.7,2.4
	C6.5,2.6,6.3,2.7,5.9,2.7c-0.4,0-0.8-0.3-1-0.7c0-0.1,0-0.1-0.1-0.2c-1.3,0-2.5,0-3.8,0c-0.3,0-0.9,0.1-0.9-0.3C0.1,1,0.6,1.1,1,1.1
	h3.8C4.9,1,4.9,1,5,0.8c0.4-0.6,1.2-0.7,1.8-0.3c0.2,0.1,0.4,0.4,0.4,0.6c0.3,0,0.5,0,0.8,0c0.2,0,0.2,0,0.3,0.1
	C8.4,1.3,8.4,1.4,8.4,1.4z M8.4,7L8.4,7c0,0.2-0.1,0.3-0.1,0.3C8.2,7.4,8.1,7.4,7.9,7.4c-0.3,0-0.5,0-0.8,0C7.1,7.5,7,7.7,7,7.7
	C6.3,8.6,5.2,8.3,4.9,7.6c0-0.1,0-0.1-0.1-0.2l-4.4,0C0.2,7.4,0.1,7.2,0.1,7v0c0-0.2,0.1-0.3,0.3-0.3l4.4,0c0-0.1,0-0.1,0.1-0.2
	C5,6.3,5.1,6.2,5.2,6.1C5.4,5.9,5.7,5.8,6,5.8c0.3,0,0.7,0.2,0.8,0.4C7.1,6.4,7,6.5,7.1,6.7c0.3,0,0.5,0,0.8,0c0.2,0,0.2,0,0.3,0.1
	C8.4,6.8,8.4,6.9,8.4,7z M5.5,7c0-0.5,0.6-0.7,0.9-0.4C6.7,7,6.4,7.5,6,7.5c-0.2,0-0.3,0-0.4-0.2C5.5,7.3,5.5,7.2,5.5,7z M5.5,1.5
	C5.5,1.2,5.7,1,5.9,1H6c0.2,0,0.5,0.2,0.5,0.5v0.1C6.5,1.8,6.3,2,6,2C5.7,2,5.5,1.7,5.5,1.5z M2,4.3C2,4.1,2,4,2.2,3.9
	c0.2-0.2,0.5-0.2,0.7,0c0.2,0.2,0.2,0.5,0,0.7C2.8,4.7,2.7,4.7,2.5,4.8c-0.1,0-0.3-0.1-0.4-0.1C2.1,4.6,2,4.4,2,4.3z"/>
</svg>
