<?xml version="1.0" encoding="utf-8"?>
<!-- Generator: Adobe Illustrator 26.3.1, SVG Export Plug-In . SVG Version: 6.00 Build 0)  -->
<svg version="1.1"
	 id="svg8" xmlns:svg="http://www.w3.org/2000/svg" xmlns:rdf="http://www.w3.org/1999/02/22-rdf-syntax-ns#" xmlns:inkscape="http://www.inkscape.org/namespaces/inkscape" xmlns:dc="http://purl.org/dc/elements/1.1/" xmlns:sodipodi="http://sodipodi.sourceforge.net/DTD/sodipodi-0.dtd" xmlns:cc="http://creativecommons.org/ns#"
	 xmlns="http://www.w3.org/2000/svg" xmlns:xlink="http://www.w3.org/1999/xlink" x="0px" y="0px" viewBox="0 0 8.5 8.5"
	 style="enable-background:new 0 0 8.5 8.5;" xml:space="preserve">
<style type="text/css">
	.st0{fill:#91D4D9;}
</style>
<path class="st0" d="M8,7.2L7.8,6.7l0,0L5.9,7.5L5.7,7.4L5.7,7.3L5.6,7.1l0-0.1l0-0.1l1.9-0.8l0,0L6,2.5l0,0L4.1,3.3L4,3.2L3.9,3.1
	L3.8,2.9l0-0.1l0-0.1l1.9-0.8l0,0L5.7,1.6l0,0L3.7,2.4L3.6,2.3L3.6,2.3L3.5,2.1l0-0.1l0-0.1l1.9-0.8l0,0L5.2,0.4
	C5.1,0.4,5,0.4,5,0.5C4.4,0.7,3.8,0.9,3.3,1.1c-0.1,0-0.1,0.1-0.2,0.1L6,8C6,8,6.1,8,6.2,7.9l1.6-0.7C7.9,7.2,7.9,7.2,8,7.2
	 M0.7,0.4h1.8c0.1,0,0.2,0,0.3,0C2.9,0.5,3,0.6,3,0.7v0.2c0.6-0.3,1.2-0.5,1.8-0.8c0.1,0,0.2-0.1,0.3-0.1c0.1,0,0.3,0,0.3,0.1
	l2.9,6.9c0,0.1,0,0.2-0.1,0.3C8.1,7.5,8,7.5,7.9,7.6L6.3,8.2C6.2,8.3,6.1,8.3,6,8.3c-0.1,0-0.3,0-0.3-0.1L3,1.8v6.3
	c0,0.1-0.1,0.2-0.2,0.2c-0.1,0-0.2,0-0.3,0H0.7c-0.1,0-0.2,0-0.3,0c-0.1,0-0.2-0.1-0.2-0.2V0.7c0-0.1,0.1-0.2,0.2-0.2
	C0.5,0.4,0.6,0.4,0.7,0.4z M2.5,0.7H0.7c-0.1,0-0.2,0-0.2,0v7.3c0.1,0,0.1,0,0.2,0h1.8c0.1,0,0.2,0,0.2,0V7.5l0,0H0.6L0.5,7.4l0-0.1
	V7.1l0-0.1l0.1-0.1h2.1l0,0V3l0,0H0.6L0.5,2.9l0-0.1V2.6l0-0.1l0.1-0.1h2.1l0,0V2.1l0,0H0.6L0.5,2l0-0.1V1.7l0-0.1l0.1-0.1h2.1l0,0
	V0.8C2.6,0.7,2.6,0.7,2.5,0.7z"/>
</svg>
