<?xml version="1.0" encoding="utf-8"?>
<!-- Generator: Adobe Illustrator 26.3.1, SVG Export Plug-In . SVG Version: 6.00 Build 0)  -->
<svg version="1.1"
	 id="svg8" xmlns:svg="http://www.w3.org/2000/svg" xmlns:rdf="http://www.w3.org/1999/02/22-rdf-syntax-ns#" xmlns:inkscape="http://www.inkscape.org/namespaces/inkscape" xmlns:dc="http://purl.org/dc/elements/1.1/" xmlns:sodipodi="http://sodipodi.sourceforge.net/DTD/sodipodi-0.dtd" xmlns:cc="http://creativecommons.org/ns#"
	 xmlns="http://www.w3.org/2000/svg" xmlns:xlink="http://www.w3.org/1999/xlink" x="0px" y="0px" viewBox="0 0 8.5 8.5"
	 style="enable-background:new 0 0 8.5 8.5;" xml:space="preserve">
<style type="text/css">
	.st0{fill:#91D4D9;}
</style>
<path class="st0" d="M8,7.7H2.4V7.4c0-0.3,0.2-0.7,0.5-0.8l1.2-0.7c0.2-0.1,0.3-0.3,0.3-0.6V4.8l0,0l0,0c0,0,0,0,0,0c0,0,0,0,0,0
	c0,0,0,0,0,0c0,0,0,0,0,0c0,0,0-0.1-0.1-0.1c0,0,0,0,0,0c0,0,0,0,0-0.1c0,0,0,0,0,0c0-0.1-0.1-0.1-0.1-0.2c0,0,0,0,0,0
	c0,0,0-0.1-0.1-0.1c0,0,0,0,0,0c0,0,0,0,0-0.1c0,0,0,0,0,0c0,0,0,0,0-0.1c0,0,0-0.1,0-0.1l0,0c0,0,0,0,0,0c0,0,0-0.1,0-0.1l0-0.1
	l0,0C3.8,3.7,3.7,3.6,3.7,3.5V3c0-0.1,0-0.1,0.1-0.2l0,0V1.8l0,0c0-0.1,0-0.4,0.2-0.6c0.2-0.3,0.6-0.4,1.1-0.4
	c0.5,0,0.9,0.1,1.1,0.4c0.3,0.3,0.2,0.7,0.2,0.7l0,0.9l0,0C6.6,2.8,6.7,2.9,6.7,3v0.5c0,0.1-0.1,0.2-0.2,0.3l-0.1,0l0,0.1
	C6.3,4.1,6.2,4.4,6,4.6c0,0.1-0.1,0.1-0.1,0.1l0,0v0.6c0,0.2,0.1,0.5,0.3,0.6l1.3,0.6C7.8,6.7,8,7.1,8,7.4V7.7z M3.5,5.9L2.7,6.3
	C2.3,6.5,2.1,6.9,2.1,7.4v0.3H0.5V7.4c0-0.3,0.2-0.6,0.4-0.7l0.9-0.6C2,6.1,2.1,5.9,2.1,5.7V5.2l0,0c0,0-0.4-0.3-0.5-0.8l0-0.1l0,0
	c-0.1,0-0.1-0.1-0.1-0.2V3.6c0,0,0-0.1,0.1-0.2l0,0V2.7c0,0,0.1-1,1.2-1c0.3,0,0.6,0.1,0.8,0.2v0.6C3.5,2.7,3.4,2.8,3.4,3v0.5
	c0,0,0,0.1,0,0.1c0,0,0,0,0,0c0,0,0,0,0,0.1c0,0,0,0,0,0c0,0.1,0.1,0.1,0.1,0.2c0,0,0,0,0,0c0,0,0,0.1,0,0.1l0,0c0,0,0,0,0,0
	c0,0,0,0,0,0c0,0,0,0,0,0.1c0,0,0,0,0,0c0,0,0,0.1,0,0.1c0,0,0,0,0,0l0,0c0,0,0,0,0,0c0,0,0,0.1,0,0.1c0,0,0,0,0,0c0,0,0,0,0,0
	c0,0,0,0.1,0,0.1c0,0,0,0,0,0c0,0,0,0.1,0.1,0.1c0,0,0,0,0,0c0,0.1,0.1,0.1,0.1,0.1c0,0,0,0,0,0c0,0,0,0,0,0v0.4
	c0,0.1-0.1,0.3-0.2,0.3L3.5,5.9 M7.6,6.3L6.3,5.7C6.2,5.6,6.1,5.5,6.1,5.4V4.9c0,0,0.1-0.1,0.1-0.1C6.4,4.5,6.5,4.3,6.6,4
	c0.2-0.1,0.3-0.3,0.3-0.5V3c0-0.1,0-0.3-0.1-0.4V1.9c0-0.1,0-0.5-0.3-0.9C6.3,0.7,5.8,0.5,5.2,0.5C4.6,0.5,4.1,0.7,3.9,1
	C3.7,1.2,3.6,1.5,3.6,1.7C3.3,1.5,3.1,1.5,2.8,1.5c-1.4,0-1.5,1.2-1.5,1.2v0.6C1.2,3.4,1.1,3.5,1.1,3.6v0.5c0,0.1,0.1,0.3,0.2,0.4
	c0.1,0.4,0.4,0.7,0.5,0.8v0.4c0,0.1-0.1,0.2-0.2,0.3L0.8,6.5C0.4,6.7,0.2,7.1,0.2,7.4V8h8.1V7.4C8.3,7,8,6.5,7.6,6.3z"/>
</svg>
